HIERARCHY
ROOT hips
{
  OFFSET 0 10.6860622 2.3727825e-15
  CHANNELS 6 Xposition Yposition Zposition Yrotation Xrotation Zrotation
  JOINT leftUpperLeg
  {
    OFFSET 0.6642549969 -0.9402397400000004 0
    CHANNELS 3 Yrotation Xrotation Zrotation
    JOINT leftLowerLeg
    {
      OFFSET 0 -3.997221335632195 0
      CHANNELS 3 Yrotation Xrotation Zrotation
      JOINT leftFoot
      {
        OFFSET -0.13777839790000004 -4.6145792000000005 -0.22186036399999998
        CHANNELS 3 Yrotation Xrotation Zrotation
        JOINT leftToes
        {
          OFFSET -0.03777410834999995 -0.9130806927000008 0.85230013
          CHANNELS 3 Yrotation Xrotation Zrotation
          End Site
          {
            OFFSET -0.03777410834999995 -0.9130806927000008 0.85230013
          }
        }
      }
    }
  }
  JOINT rightUpperLeg
  {
    OFFSET -0.6642778626 -0.9402397400000004 0
    CHANNELS 3 Yrotation Xrotation Zrotation
    JOINT rightLowerLeg
    {
      OFFSET 0 -3.997221452859387 0
      CHANNELS 3 Yrotation Xrotation Zrotation
      JOINT rightFoot
      {
        OFFSET 0.1377926176 -4.6145792000000005 -0.22185782299999995
        CHANNELS 3 Yrotation Xrotation Zrotation
        JOINT rightToes
        {
          OFFSET 0.037780746850000047 -0.9130806927000008 0.85230167
          CHANNELS 3 Yrotation Xrotation Zrotation
          End Site
          {
            OFFSET 0.037780746850000047 -0.9130806927000008 0.85230167
          }
        }
      }
    }
  }
  JOINT spine
  {
    OFFSET 0 0.13988381660000015 0
    CHANNELS 3 Yrotation Xrotation Zrotation
    JOINT chest
    {
      OFFSET 0 0.6191039003973773 0
      CHANNELS 3 Yrotation Xrotation Zrotation
      JOINT upperChest
      {
        OFFSET 0 0.9855186130586943 0
        CHANNELS 3 Yrotation Xrotation Zrotation
        JOINT leftShoulder
        {
          OFFSET 0.1807663869 1.5087829790000005 0
          CHANNELS 3 Yrotation Xrotation Zrotation
          JOINT leftUpperArm
          {
            OFFSET 0.5985063006419806 0 0
            CHANNELS 3 Yrotation Xrotation Zrotation
            JOINT leftLowerArm
            {
              OFFSET 2.2993332369501065 0 0
              CHANNELS 3 Yrotation Xrotation Zrotation
              JOINT leftHand
              {
                OFFSET 2.395047042602395 0 0
                CHANNELS 3 Yrotation Xrotation Zrotation
                JOINT leftIndexProximal
                {
                  OFFSET 0.5766295810000004 0.04556643899499946 0.17265095988184
                  CHANNELS 3 Yrotation Xrotation Zrotation
                  JOINT leftIndexIntermediate
                  {
                    OFFSET 0.2957229000000008 -0.019352197700001517 -0.007932640616999987
                    CHANNELS 3 Yrotation Xrotation Zrotation
                    JOINT leftIndexDistal
                    {
                      OFFSET 0.19008243099999922 -0.012484908149998475 -0.002786250786000012
                      CHANNELS 3 Yrotation Xrotation Zrotation
                      End Site
                      {
                        OFFSET 0.19008243099999922 -0.012484908149998475 -0.002786250786000012
                      }
                    }
                  }
                }
                JOINT leftMiddleProximal
                {
                  OFFSET 0.5834975091000001 0.0524350405149987 0.02204081888183999
                  CHANNELS 3 Yrotation Xrotation Zrotation
                  JOINT leftMiddleIntermediate
                  {
                    OFFSET 0.33880573540000003 -0.019871473270000717 -0.00000971183179999946
                    CHANNELS 3 Yrotation Xrotation Zrotation
                    JOINT leftMiddleDistal
                    {
                      OFFSET 0.20676022730000088 -0.012221336379999448 0.0001471936708000235
                      CHANNELS 3 Yrotation Xrotation Zrotation
                      End Site
                      {
                        OFFSET 0.20676022730000088 -0.012221336379999448 0.0001471936708000235
                      }
                    }
                  }
                }
                JOINT leftLittleProximal
                {
                  OFFSET 0.5344154683999995 -0.012880921405001189 -0.24414037221816004
                  CHANNELS 3 Yrotation Xrotation Zrotation
                  JOINT leftLittleIntermediate
                  {
                    OFFSET 0.21758961730000093 -0.011650919939999227 0.011893592810000034
                    CHANNELS 3 Yrotation Xrotation Zrotation
                    JOINT leftLittleDistal
                    {
                      OFFSET 0.1475273964999999 -0.008152365682999818 0.006001092492999946
                      CHANNELS 3 Yrotation Xrotation Zrotation
                      End Site
                      {
                        OFFSET 0.1475273964999999 -0.008152365682999818 0.006001092492999946
                      }
                    }
                  }
                }
                JOINT leftRingProximal
                {
                  OFFSET 0.5799399463000003 0.026911854694997794 -0.12150566991816003
                  CHANNELS 3 Yrotation Xrotation Zrotation
                  JOINT leftRingIntermediate
                  {
                    OFFSET 0.26167887460000006 -0.013480186499999602 0.010996293000000053
                    CHANNELS 3 Yrotation Xrotation Zrotation
                    JOINT leftRingDistal
                    {
                      OFFSET 0.17667108799999987 -0.008990287899999228 0.0055541023999999065
                      CHANNELS 3 Yrotation Xrotation Zrotation
                      End Site
                      {
                        OFFSET 0.17667108799999987 -0.008990287899999228 0.0055541023999999065
                      }
                    }
                  }
                }
                JOINT leftThumbProximal
                {
                  OFFSET 0.11018806699999972 -0.09448718900500053 0.17047963138184
                  CHANNELS 3 Yrotation Xrotation Zrotation
                  JOINT leftThumbIntermediate
                  {
                    OFFSET 0.31062601459999983 -0.08126270900000132 0.15443142000000007
                    CHANNELS 3 Yrotation Xrotation Zrotation
                    JOINT leftThumbDistal
                    {
                      OFFSET 0.21627175790000086 -0.08833193599999878 0.018771167799999988
                      CHANNELS 3 Yrotation Xrotation Zrotation
                      End Site
                      {
                        OFFSET 0.21627175790000086 -0.08833193599999878 0.018771167799999988
                      }
                    }
                  }
                }
              }
            }
          }
        }
        JOINT neck
        {
          OFFSET 0 1.5463305265074576 0
          CHANNELS 3 Yrotation Xrotation Zrotation
          JOINT head
          {
            OFFSET 0 0.8456443600000344 0
            CHANNELS 3 Yrotation Xrotation Zrotation
            JOINT leftEye
            {
              OFFSET 0.30408573140000006 0.5104519199999995 0.1276382305
              CHANNELS 3 Yrotation Xrotation Zrotation
              End Site
              {
                OFFSET 0.30408573140000006 0.5104519199999995 0.1276382305
              }
            }
            JOINT rightEye
            {
              OFFSET -0.30409491089999996 0.5104519199999995 0.1276379445
              CHANNELS 3 Yrotation Xrotation Zrotation
              End Site
              {
                OFFSET -0.30409491089999996 0.5104519199999995 0.1276379445
              }
            }
            JOINT jaw
            {
              OFFSET -3.155239131000001e-7 -0.11984121820000082 0.60178107
              CHANNELS 3 Yrotation Xrotation Zrotation
              End Site
              {
                OFFSET -3.155239131000001e-7 -0.11984121820000082 0.60178107
              }
            }
          }
        }
        JOINT rightShoulder
        {
          OFFSET -0.1807303465 1.5087829790000005 0
          CHANNELS 3 Yrotation Xrotation Zrotation
          JOINT rightUpperArm
          {
            OFFSET -0.5985063796536958 0 0
            CHANNELS 3 Yrotation Xrotation Zrotation
            JOINT rightLowerArm
            {
              OFFSET -2.2993322059002854 0 0
              CHANNELS 3 Yrotation Xrotation Zrotation
              JOINT rightHand
              {
                OFFSET -2.395045314457259 0 0
                CHANNELS 3 Yrotation Xrotation Zrotation
                JOINT rightIndexProximal
                {
                  OFFSET -0.5764487688300002 0.0441371204405987 0.17361932004999997
                  CHANNELS 3 Yrotation Xrotation Zrotation
                  JOINT rightIndexIntermediate
                  {
                    OFFSET -0.29573011380000047 -0.01934826376999843 -0.007698921482999974
                    CHANNELS 3 Yrotation Xrotation Zrotation
                    JOINT rightIndexDistal
                    {
                      OFFSET -0.19008373999999884 -0.012503266380000655 -0.0026365778999999897
                      CHANNELS 3 Yrotation Xrotation Zrotation
                      End Site
                      {
                        OFFSET -0.19008373999999884 -0.012503266380000655 -0.0026365778999999897
                      }
                    }
                  }
                }
                JOINT rightMiddleProximal
                {
                  OFFSET -0.5834852037300005 0.05211639405060153 0.02307162440000001
                  CHANNELS 3 Yrotation Xrotation Zrotation
                  JOINT rightMiddleIntermediate
                  {
                    OFFSET -0.33880114510000003 -0.019952774050000954 0.0002455003561999819
                    CHANNELS 3 Yrotation Xrotation Zrotation
                    JOINT rightMiddleDistal
                    {
                      OFFSET -0.20675694929999955 -0.012273788999999091 0.00030209124000002766
                      CHANNELS 3 Yrotation Xrotation Zrotation
                      End Site
                      {
                        OFFSET -0.20675694929999955 -0.012273788999999091 0.00030209124000002766
                      }
                    }
                  }
                }
                JOINT rightLittleProximal
                {
                  OFFSET -0.5346811737299992 -0.011214256288399227 -0.24363941305000003
                  CHANNELS 3 Yrotation Xrotation Zrotation
                  JOINT rightLittleIntermediate
                  {
                    OFFSET -0.21757715980000092 -0.011771559690000988 0.01201554387
                    CHANNELS 3 Yrotation Xrotation Zrotation
                    JOINT rightLittleDistal
                    {
                      OFFSET -0.1475201849000004 -0.00822055339600003 0.006082065407000015
                      CHANNELS 3 Yrotation Xrotation Zrotation
                      End Site
                      {
                        OFFSET -0.1475201849000004 -0.00822055339600003 0.006082065407000015
                      }
                    }
                  }
                }
                JOINT rightRingProximal
                {
                  OFFSET -0.5800810755299999 0.027657985680600072 -0.12066365025000003
                  CHANNELS 3 Yrotation Xrotation Zrotation
                  JOINT rightRingIntermediate
                  {
                    OFFSET -0.26166445029999974 -0.013623118409999302 0.011164098990000045
                    CHANNELS 3 Yrotation Xrotation Zrotation
                    JOINT rightRingDistal
                    {
                      OFFSET -0.17666387530000027 -0.009072900100000503 0.005668185599999959
                      CHANNELS 3 Yrotation Xrotation Zrotation
                      End Site
                      {
                        OFFSET -0.17666387530000027 -0.009072900100000503 0.005668185599999959
                      }
                    }
                  }
                }
                JOINT rightThumbProximal
                {
                  OFFSET -0.10997596379000074 -0.09577489355940072 0.16989765924999997
                  CHANNELS 3 Yrotation Xrotation Zrotation
                  JOINT rightThumbIntermediate
                  {
                    OFFSET -0.31036620999999986 -0.08229339117999834 0.15440884469999996
                    CHANNELS 3 Yrotation Xrotation Zrotation
                    JOINT rightThumbDistal
                    {
                      OFFSET -0.21631306399999906 -0.08825326400000111 0.018656797720000014
                      CHANNELS 3 Yrotation Xrotation Zrotation
                      End Site
                      {
                        OFFSET -0.21631306399999906 -0.08825326400000111 0.018656797720000014
                      }
                    }
                  }
                }
              }
            }
          }
        }
      }
    }
  }
}
MOTION
Frames: 6
Frame Time: 0.03333333333333333
5.366740723532839 -5.584411149838409 3.1029906738703468 0.008856223795946647 -58.994656339191536 179.99499116019695 85.41045184787072 -60.187540750247926 -71.93702346011823 -43.50223492628354 24.61629359872631 -16.53838195225989 4.557586038744652 -3.106903103225417 17.87444824396499 0 0 0 -84.04598696696794 -59.82910410932836 72.69026953988535 43.48963692964175 24.62644593423532 16.542485071464284 -5.582995609649735 -3.546312639308727 -20.38885452626367 0 0 0 -4.224441839242456e-21 1.2465646429157122 -3.8832023583346693e-19 -0.6150436965560911 42.67416723184406 -0.43022373125345864 0 0 0 -3.1046750073549005 -3.404636599968796 -11.908356325621584 -45.86574778175609 34.63038297857028 -63.22435352594203 -14.136026948312049 35.91945610865431 2.087383442835595 -0.17143198934152018 -7.677897117032288 2.887428070913469 0 0 0 0 0 0 0 0 0 0 0 0 0 0 0 0 0 0 0 0 0 0 0 0 0 0 0 0 0 0 0 0 0 0 0 0 0 0 0 0 0 0 0 0 0 -0.5618060766502195 1.555304265131434 2.8722768738660456 0 0.06047499972792369 0 0 0 0 0 0 0 0 0 0 2.647342650523294 -4.2140802017563885 6.038452787047826 49.15344840910062 28.600133424307135 69.6228697990758 19.40095319689512 35.99005890267003 0.17980307595307368 -6.024534480553527 -5.729171505065378 -1.5957519816564318 0 0 0 0 0 0 0 0 0 0 0 0 0 0 0 0 0 0 0 0 0 0 0 0 0 0 0 0 0 0 0 0 0 0 0 0 0 0 0 0 0 0 0 0 0
5.366740723532839 -5.584411149838409 3.1029906738703468 0.008856223795946647 -58.994656339191536 179.99499116019695 85.4195719134532 -60.18995191734134 -71.93033092200858 -43.50223492628354 24.61629359872631 -16.53838195225989 4.557586891071433 -3.106903103225417 17.87444824396499 0 0 0 -84.12833779698116 -59.84991725361267 72.64357026357747 43.48963692964175 24.62644593423532 16.542485071464284 -5.529666032964508 -3.5230782393514795 -20.257540448597602 0 0 0 4.903048503499026e-21 1.446701660448744 3.883441543687311e-19 -0.6103472623158249 42.19806190771474 -0.42331734976699764 0 0 0 -3.0100502498799577 -3.2409011953673894 -12.203889180842603 -45.76213158912678 34.79082676611712 -63.046876434764634 -14.136026948312049 35.91945610865431 2.087383442835595 -0.2404054777367956 -7.550080395066712 2.8323850534814676 0 0 0 0 0 0 0 0 0 0 0 0 0 0 0 0 0 0 0 0 0 0 0 0 0 0 0 0 0 0 0 0 0 0 0 0 0 0 0 0 0 0 0 0 0 -0.5807746075140842 1.90961807393007 3.0150901350004085 0 0.06017299714349703 0 0 0 0 0 0 0 0 0 0 2.5451803799020536 -4.026599050895665 6.302724844568749 49.08651727772954 28.74379901914058 69.48511261121102 19.40095319689512 35.99005890267003 0.17980307595307368 -5.956672678418681 -5.600491945705634 -1.561677055578861 0 0 0 0 0 0 0 0 0 0 0 0 0 0 0 0 0 0 0 0 0 0 0 0 0 0 0 0 0 0 0 0 0 0 0 0 0 0 0 0 0 0 0 0 0
5.366740723532839 -5.584411149838409 3.1029906738703468 0.008856223795946647 -58.994656339191536 179.99499116019695 85.43781854614596 -60.19477478291731 -71.91694892809917 -43.50223492628354 24.61629359872631 -16.53838195225989 4.557586891071433 -3.106903103225417 17.87444824396499 0 0 0 -84.29307851535671 -59.891623490357865 72.5502426942908 43.48963692964175 24.62644593423532 16.542485071464284 -5.422850794305236 -3.4769779062090644 -19.99486524783934 0 0 0 -1.5285675993018e-18 1.8469675826090985 1.5285675993018e-18 -0.6012899990623267 41.24597945279562 -0.40981524417877013 0 0 0 -2.823398786484421 -2.912004352816744 -12.793972687261128 -45.55245644909435 35.11091069255782 -62.68980839398879 -14.136026948312049 35.91945610865431 2.087383442835595 -0.3786615801739125 -7.294652586850124 2.721883905459621 0 0 0 0 0 0 0 0 0 0 0 0 0 0 0 0 0 0 0 0 0 0 0 0 0 0 0 0 0 0 0 0 0 0 0 0 0 0 0 0 0 0 0 0 0 -0.6160953738499902 2.6188539237062956 3.300659740404966 0 0.05956799813322844 0 0 0 0 0 0 0 0 0 0 2.3435390075576095 -3.650260251334846 6.830055660233612 48.95118620370105 29.03069826000665 69.20846108817979 19.40095319689512 35.99005890267003 0.17980307595307368 -5.820765884870823 -5.343258747616417 -1.4930932185527228 0 0 0 0 0 0 0 0 0 0 0 0 0 0 0 0 0 0 0 0 0 0 0 0 0 0 0 0 0 0 0 0 0 0 0 0 0 0 0 0 0 0 0 0 0
5.366740723532839 -5.584411149838409 3.1029906738703468 0.008856223795946647 -58.994656339191536 179.99499116019695 85.44695227908284 -60.19719335267577 -71.9102731001983 -43.50223492628354 24.61629359872631 -16.53838195225989 4.557586891071433 -3.106903103225417 17.87444824396499 0 0 0 -84.37542568005206 -59.912530313116136 72.50357490433096 43.48963692964175 24.62644593423532 16.542485071464284 -5.36936750500566 -3.4541110921030547 -19.863502942909527 0 0 0 0 2.047091652420538 0 -0.5969205348459631 40.77002135636044 -0.4032126507441278 0 0 0 -2.7313757981430618 -2.746857527463819 -13.088515802281453 -45.44641089820252 35.27053763962285 -62.51023084189385 -14.136026948312049 35.91945610865431 2.087383442835595 -0.44794512942357606 -7.167040973352036 2.666425239019372 0 0 0 0 0 0 0 0 0 0 0 0 0 0 0 0 0 0 0 0 0 0 0 0 0 0 0 0 0 0 0 0 0 0 0 0 0 0 0 0 0 0 0 0 0 -0.6324465247940599 2.9737540743453788 3.4434326151389887 0 0.05926600222390754 0 0 0 0 0 0 0 0 0 0 2.244062723171454 -3.4614205348836444 7.09311771358407 48.882785540158636 29.173924690226674 69.0695583847033 19.40095319689512 35.99005890267003 0.17980307595307368 -5.752720761450227 -5.214706331055048 -1.458582867901013 0 0 0 0 0 0 0 0 0 0 0 0 0 0 0 0 0 0 0 0 0 0 0 0 0 0 0 0 0 0 0 0 0 0 0 0 0 0 0 0 0 0 0 0 0
5.366740723532839 -5.584411149838409 3.1029906738703468 0.008856223795946647 -58.994656339191536 179.99499116019695 85.46521502559783 -60.20202415480436 -71.89691352950614 -43.50223492628354 24.61629359872631 -16.53838195225989 4.557586891071433 -3.106903103225417 17.87444824396499 0 0 0 -84.54026903763585 -59.954431257569155 72.41043848593894 43.48963692964175 24.62644593423532 16.542485071464284 -5.262251263638462 -3.4087488103743806 -19.600732075425043 0 0 0 7.853330655711501e-19 2.447323635279824 4.05114727469163e-19 -0.5884930567063302 39.818375409444755 -0.39029113953328487 0 0 0 -2.549948502303531 -2.415207136175483 -13.67660705385055 -45.23185330848231 35.588951134311046 -62.1489308281027 -14.136026948312049 35.91945610865431 2.087383442835595 -0.5868242162964025 -6.912022745856262 2.555090263595051 0 0 0 0 0 0 0 0 0 0 0 0 0 0 0 0 0 0 0 0 0 0 0 0 0 0 0 0 0 0 0 0 0 0 0 0 0 0 0 0 0 0 0 0 0 -0.6625222790261841 3.6840701874366553 3.728990414376029 0 0.05866100322357069 0 0 0 0 0 0 0 0 0 0 2.047802153018463 -3.0824334844156156 7.61803369675147 48.74451152204642 29.459938427784238 68.79058751712644 19.40095319689512 35.99005890267003 0.17980307595307368 -5.6164365358335155 -4.957729923779039 -1.3891243772050843 0 0 0 0 0 0 0 0 0 0 0 0 0 0 0 0 0 0 0 0 0 0 0 0 0 0 0 0 0 0 0 0 0 0 0 0 0 0 0 0 0 0 0 0 0
5.366740723532839 -5.584411149838409 3.1029906738703468 0.008856223795946647 -58.994656339191536 179.99499116019695 85.47432196630348 -60.20444325895759 -71.8902081174317 -43.50223492628354 24.61629359872631 -16.53838195225989 4.557586891071433 -3.106903103225417 17.874449871483545 0 0 0 -84.62270088074493 -59.975439145537436 72.36390070833066 43.48963692964175 24.62644593423532 16.542485071464284 -5.208619409206039 -3.386251179847746 -19.469324654732326 0 0 0 -7.501889722030688e-19 2.6474287355312205 1.1477300348538123e-18 -0.5844270462473071 39.34272064149596 -0.3839671382240657 0 0 0 -2.460546533285373 -2.2487193034496737 -13.970151967020001 -45.123327993143214 35.747736814283456 -61.967202930100676 -14.136026948312049 35.91945610865431 2.087383442835595 -0.6564202280457128 -6.784620775476828 2.4992151089567427 0 0 0 0 0 0 0 0 0 0 0 0 0 0 0 0 0 0 0 0 0 0 0 0 0 0 0 0 0 0 0 0 0 0 0 0 0 0 0 0 0 0 0 0 0 -0.6762457831008555 4.039465264269586 3.871790783529992 0 0.05835900064905949 0 0 0 0 0 0 0 0 0 0 1.951020044304374 -2.892304299708002 7.879890597228001 48.67462594882217 29.602708612475933 68.65051878654165 19.40095319689512 35.99005890267003 0.17980307595307368 -5.5482002636563665 -4.829308874065148 -1.3541766963015194 0 0 0 0 0 0 0 0 0 0 0 0 0 0 0 0 0 0 0 0 0 0 0 0 0 0 0 0 0 0 0 0 0 0 0 0 0 0 0 0 0 0 0 0 0
